<?xml version="1.0" encoding="UTF-8" standalone="no"?>
<!-- Created with Inkscape (http://www.inkscape.org/) -->

<svg
   xmlns:dc="http://purl.org/dc/elements/1.1/"
   xmlns:cc="http://creativecommons.org/ns#"
   xmlns:rdf="http://www.w3.org/1999/02/22-rdf-syntax-ns#"
   xmlns:svg="http://www.w3.org/2000/svg"
   xmlns="http://www.w3.org/2000/svg"
   xmlns:sodipodi="http://sodipodi.sourceforge.net/DTD/sodipodi-0.dtd"
   xmlns:inkscape="http://www.inkscape.org/namespaces/inkscape"
   width="380"
   height="100"
   viewBox="0 0 100.54166 26.458331"
   version="1.1"
   id="svg4872"
   sodipodi:docname="logo-website.svg"
   inkscape:version="0.92.3 (2405546, 2018-03-11)">
  <defs
     id="defs4866" />
  <sodipodi:namedview
     id="base"
     pagecolor="#ffffff"
     bordercolor="#666666"
     borderopacity="1.0"
     inkscape:pageopacity="0.0"
     inkscape:pageshadow="2"
     inkscape:zoom="2.6053525"
     inkscape:cx="190.37731"
     inkscape:cy="37.768402"
     inkscape:document-units="px"
     inkscape:current-layer="layer1"
     showgrid="false"
     units="px"
     inkscape:window-width="1600"
     inkscape:window-height="837"
     inkscape:window-x="-8"
     inkscape:window-y="-8"
     inkscape:window-maximized="1" />
  <metadata
     id="metadata4869">
    <rdf:RDF>
      <cc:Work
         rdf:about="">
        <dc:format>image/svg+xml</dc:format>
        <dc:type
           rdf:resource="http://purl.org/dc/dcmitype/StillImage" />
        <dc:title></dc:title>
      </cc:Work>
    </rdf:RDF>
  </metadata>
  <g
     inkscape:label="Layer 1"
     inkscape:groupmode="layer"
     id="layer1"
     transform="translate(-35.616778,-137.11608)">
    <path
       inkscape:connector-curvature="0"
       style="opacity:0;fill:#670099;fill-opacity:1;stroke:none;stroke-width:2.53999996;stroke-linecap:round;stroke-linejoin:round;stroke-miterlimit:4;stroke-dasharray:none;stroke-opacity:1;paint-order:markers fill stroke"
       d="m 35.61678,137.11608 v 26.45833 H 85.887616 136.15843 V 137.11608 H 85.887616 Z"
       id="path31126"
       inkscape:export-xdpi="96"
       inkscape:export-ydpi="96" />
    <path
       d="m 58.500851,149.89561 h 1.081405 c 0.605146,0 1.031491,0.0326 1.243741,0.0829 0.33725,0.0808 0.583605,0.22504 0.762174,0.43209 v 6.2e-4 l 6.19e-4,6.2e-4 c 0.183204,0.20916 0.268539,0.43475 0.268539,0.71107 0,0.22328 -0.06103,0.41908 -0.190088,0.60759 -0.129412,0.18903 -0.294624,0.32363 -0.509928,0.41454 v 6.2e-4 h -6.19e-4 c -0.196601,0.0841 -0.566502,0.14101 -1.083218,0.14101 h -1.572628 z m 26.13239,-1.44272 c 0.522116,0 0.94506,0.18471 1.314342,0.57612 0.143323,0.15259 0.252024,0.31118 0.333114,0.47566 0.114366,0.38253 0.157697,0.78216 0.133969,1.20247 -0.254997,0.67068 -0.584063,1.12482 -0.977008,1.37675 -0.394102,0.25268 -0.863041,0.31918 -1.444088,0.19426 -0.463336,-0.23392 -0.781849,-0.50884 -0.965542,-0.82 v -6.2e-4 c -1.33e-4,-2.3e-4 -6.18e-4,-3.7e-4 -6.18e-4,-6.2e-4 -0.192848,-0.33284 -0.286042,-0.66936 -0.286042,-1.02273 0,-0.5571 0.182399,-1.01143 0.561223,-1.40339 0.379449,-0.3926 0.808519,-0.57793 1.330635,-0.57793 z m -18.065285,0 c 0.522115,0 0.951789,0.18533 1.331238,0.57793 0.378824,0.39195 0.560617,0.84629 0.560617,1.40339 0,0.35782 -0.08391,0.6867 -0.25466,0.99913 -0.169912,0.30759 -0.394455,0.53735 -0.68252,0.7026 -0.286518,0.16292 -0.600254,0.24448 -0.954675,0.24448 -0.346867,0 -0.658873,-0.0807 -0.949252,-0.24388 l -6.19e-4,-6.2e-4 c -0.288331,-0.1654 -0.514721,-0.39621 -0.68795,-0.70441 -0.170116,-0.31192 -0.254059,-0.64015 -0.254059,-0.99732 0,-0.5571 0.182399,-1.01143 0.561223,-1.40338 0.379449,-0.39261 0.808522,-0.57794 1.330638,-0.57794 z m 25.236243,-0.52227 0.916663,1.96377 h -1.849013 z m -15.303236,-0.30076 v 0.20454 5.60567 h 1.100717 v -5.81021 z m -3.256289,-0.13798 c -0.54256,-0.01 -1.034921,0.0761 -1.470037,0.26264 l -0.0097,0.004 -0.0097,0.005 c -0.267583,0.15027 -0.524074,0.35947 -0.771225,0.62454 l -0.0036,0.004 -0.0036,0.004 c -0.280834,0.33491 -0.440886,0.82601 -0.515961,1.46451 -0.03544,0.21437 -0.04728,0.46429 -0.03742,0.75343 v 0.002 c 1.9e-5,4.6e-4 -1.5e-5,7.4e-4 0,10e-4 l 0.0097,0.57249 v 2.24941 h 1.106151 v -2.18405 c 0,-0.7062 0.03487,-1.19539 0.08811,-1.42578 l 0.006,-0.0284 -0.0012,-0.0291 c -0.01989,-0.3648 0.09401,-0.61029 0.374146,-0.81818 0.293755,-0.21799 0.618007,-0.32437 0.997528,-0.32437 0.452927,0 0.776001,0.0762 0.967348,0.19547 l 6.19e-4,6.2e-4 6.19e-4,6.1e-4 c 0.188318,0.11485 0.320094,0.308 0.393458,0.62877 v 0.002 l 6.19e-4,0.002 c 0.04082,0.16375 0.07242,0.58284 0.07242,1.20066 v 2.77953 h 1.095888 v -2.98166 c 0,-0.7518 -0.06921,-1.31146 -0.237163,-1.70476 v -6.2e-4 c -0.164145,-0.38745 -0.446239,-0.69959 -0.825536,-0.92227 -0.373289,-0.22421 -0.786923,-0.33869 -1.226238,-0.3389 z m 11.388567,-0.1283 c -0.877536,0 -1.631843,0.3311 -2.212898,0.97311 l -6.19e-4,6.2e-4 c -0.524906,0.58565 -0.793557,1.29309 -0.793557,2.08662 0,0.799 0.283542,1.51546 0.834592,2.11325 l 6.19e-4,6.1e-4 v 6.2e-4 c 0.560206,0.60041 1.30092,0.90654 2.171867,0.90654 h 0.0084 l 0.0091,-6.1e-4 c 0.787322,-0.0667 1.42066,-0.33072 1.864699,-0.7843 v 0.80971 h 1.099514 l 0.0356,-0.16097 c 0.01296,-0.0584 0.0056,-0.0405 0.006,-0.052 3.09e-4,-0.0116 9.28e-4,-0.0254 0.0012,-0.0424 6.19e-4,-0.0339 9.28e-4,-0.0814 0.0012,-0.14282 9.28e-4,-0.12293 0.0012,-0.30225 0.0012,-0.5392 0,-0.47376 -0.0015,-1.17661 -0.0048,-2.10841 0,-0.80029 -0.273941,-1.51023 -0.809246,-2.09267 -0.581183,-0.63866 -1.335632,-0.96766 -2.212902,-0.96766 z m -18.065285,0 c -0.87754,0 -1.631844,0.3311 -2.212902,0.97311 l -6.19e-4,6.2e-4 c -0.524903,0.58565 -0.793551,1.29309 -0.793551,2.08662 0,0.799 0.283542,1.51546 0.834589,2.11325 l 6.19e-4,6.1e-4 v 6.2e-4 c 0.560209,0.60041 1.30092,0.90654 2.17187,0.90654 0.867855,0 1.606976,-0.30628 2.167037,-0.90654 v -6.2e-4 h 6.18e-4 c 0.554442,-0.5977 0.840022,-1.31455 0.840022,-2.11385 0,-0.79661 -0.268514,-1.50566 -0.793553,-2.09146 l -6.19e-4,-6.2e-4 -6.19e-4,-6.1e-4 c -0.581179,-0.63866 -1.335631,-0.96767 -2.212899,-0.96767 z m -8.067105,-0.53981 h 1.513486 c 0.481776,0 0.804095,0.0949 0.980025,0.23904 0.186904,0.15312 0.273972,0.34157 0.273972,0.62877 0,0.21078 -0.05656,0.39155 -0.175002,0.56281 v 6.2e-4 c -0.114669,0.16701 -0.266197,0.28659 -0.471912,0.36855 l -6.19e-4,6.1e-4 h -6.19e-4 c -0.188795,0.0763 -0.54136,0.1277 -1.032527,0.1277 h -1.086838 z m 33.086707,-1.12379 -3.63406,7.71044 h 1.266673 l 1.133907,-2.40736 h 2.883349 l 1.144166,2.40736 h 1.225031 l -3.582762,-7.71044 h -0.129743 z m -34.207341,0 v 0.20515 7.50529 h 3.075857 c 0.754984,0 1.387908,-0.21815 1.858063,-0.66084 l 6.18e-4,-6.2e-4 c 0.464382,-0.44081 0.707263,-1.00315 0.70726,-1.64061 0,-0.31599 -0.0638,-0.61501 -0.191298,-0.889 -0.126324,-0.27145 -0.304079,-0.5058 -0.529238,-0.69533 -0.163798,-0.14023 -0.420661,-0.24259 -0.667427,-0.34979 0.196319,-0.14878 0.407666,-0.28703 0.528634,-0.4914 0.17904,-0.29722 0.270349,-0.63294 0.270352,-0.99126 0,-0.37992 -0.101773,-0.73628 -0.301131,-1.05299 -0.197275,-0.31873 -0.476377,-0.56151 -0.821916,-0.71471 -0.353595,-0.15676 -0.821062,-0.22391 -1.413315,-0.22391 z m 20.91243,-0.18216 v 5.8084 c -0.0071,0.42722 0.09244,0.82821 0.296908,1.18795 l 6.18e-4,0.002 0.0012,0.001 c 0.332949,0.56477 0.82661,0.89399 1.421155,0.92712 l 0.0019,6.2e-4 h 0.0025 c 0.317696,0.0111 0.664089,-0.061 1.042183,-0.20576 l 0.19492,-0.0744 -0.07845,-0.19365 c -0.05388,-0.13349 -0.125173,-0.32353 -0.213023,-0.56825 l -0.08026,-0.22391 -0.208798,0.11256 c -0.286839,0.15489 -0.529689,0.16208 -0.79476,0.0442 -0.336334,-0.26548 -0.493112,-0.61114 -0.475532,-1.11653 l 6.18e-4,-0.004 v -2.08299 h 1.276326 v -1.00579 H 79.398965 V 145.5179 Z M 77.04891,145.4095 c -0.205345,0 -0.402066,0.0819 -0.547341,0.22754 -0.145275,0.14568 -0.226297,0.34236 -0.226297,0.54828 0,0.20593 0.08068,0.40285 0.224487,0.55131 l 0.0012,0.001 6.18e-4,0.001 c 0.145275,0.14569 0.341997,0.22755 0.547341,0.22755 0.205345,0 0.402066,-0.0819 0.547344,-0.22755 0.147574,-0.14799 0.231123,-0.34638 0.231123,-0.55373 0,-0.20668 -0.0848,-0.40384 -0.232933,-0.54888 -0.145139,-0.14481 -0.340849,-0.22694 -0.545534,-0.22694 z"
       style="color:#000000;font-style:normal;font-variant:normal;font-weight:normal;font-stretch:normal;font-size:32.53913498px;line-height:20.33695602px;font-family:'eurofurence light';-inkscape-font-specification:'eurofurence light, ';font-variant-ligatures:normal;font-variant-position:normal;font-variant-caps:normal;font-variant-numeric:normal;font-variant-alternates:normal;font-feature-settings:normal;text-indent:0;text-align:start;text-decoration:none;text-decoration-line:none;text-decoration-style:solid;text-decoration-color:#000000;letter-spacing:0px;word-spacing:0px;text-transform:none;writing-mode:lr-tb;direction:ltr;text-orientation:mixed;dominant-baseline:auto;baseline-shift:baseline;text-anchor:start;white-space:normal;shape-padding:0;clip-rule:nonzero;display:inline;overflow:visible;visibility:visible;opacity:1;isolation:auto;mix-blend-mode:normal;color-interpolation:sRGB;color-interpolation-filters:linearRGB;solid-color:#000000;solid-opacity:1;vector-effect:none;fill:#ffffff;fill-opacity:1;fill-rule:nonzero;stroke:none;stroke-width:1.32291675;stroke-linecap:butt;stroke-linejoin:miter;stroke-miterlimit:4;stroke-dasharray:none;stroke-dashoffset:0;stroke-opacity:1;color-rendering:auto;image-rendering:auto;shape-rendering:auto;text-rendering:auto;enable-background:accumulate"
       id="path31128"
       inkscape:connector-curvature="0" />
    <path
       d="m 99.363791,149.89561 h 1.081409 c 0.60514,0 1.03149,0.0326 1.24374,0.0829 0.33725,0.0808 0.5836,0.22504 0.76217,0.43209 v 6.2e-4 l 6.2e-4,6.2e-4 c 0.1832,0.20916 0.26854,0.43475 0.26854,0.71107 0,0.22328 -0.061,0.41908 -0.19009,0.60759 -0.12941,0.18903 -0.29463,0.32363 -0.50992,0.41454 v 6.2e-4 h -6.2e-4 c -0.1966,0.0841 -0.5665,0.14101 -1.08322,0.14101 h -1.572626 z m 14.645459,-1.44272 c 0.52212,0 0.94506,0.18471 1.31435,0.57612 0.14319,0.1525 0.25146,0.31128 0.3325,0.47566 0.11448,0.38291 0.15786,0.78291 0.13397,1.20368 -0.25492,0.66989 -0.58434,1.12379 -0.97701,1.37554 -0.39424,0.25278 -0.86274,0.31937 -1.44408,0.19426 -0.46317,-0.23384 -0.78123,-0.50897 -0.96494,-0.82 -0.19335,-0.33325 -0.28665,-0.67014 -0.28665,-1.02394 0,-0.5571 0.1818,-1.01144 0.56062,-1.40339 0.37945,-0.3926 0.80912,-0.57793 1.33124,-0.57793 z m -6.61275,-0.0145 c 0.29152,0 0.56588,0.0616 0.83097,0.187 l 6.1e-4,6.2e-4 10e-4,6.2e-4 c 0.26654,0.12313 0.47184,0.28153 0.627,0.47747 l 6.2e-4,6.2e-4 6.2e-4,6.2e-4 c 0.10432,0.1298 0.17369,0.3482 0.24863,0.55252 h -3.39147 c 0.12424,-0.32391 0.27268,-0.59143 0.45924,-0.7607 0.34449,-0.30946 0.74002,-0.45871 1.22262,-0.45871 z m 19.29756,-0.9368 0.12732,0.28806 2.1725,4.90973 -1.12488,2.58164 h 1.17735 l 3.3945,-7.77943 h -1.18762 l -1.66559,3.85552 -1.71502,-3.85552 z m -8.80997,0 v 0.20515 2.5992 c 0,0.78345 0.0836,1.38171 0.2782,1.81248 l 6.2e-4,6.2e-4 c 0.18906,0.41496 0.48188,0.74736 0.86535,0.98097 v 6.2e-4 0 c 0.38891,0.23329 0.86656,0.34434 1.42054,0.34434 0.55091,0 1.02506,-0.11071 1.41091,-0.34434 v -6.2e-4 -6.1e-4 c 0.37899,-0.23305 0.66957,-0.56085 0.85871,-0.96827 v -6.2e-4 c 0.1986,-0.42435 0.28486,-1.00975 0.28486,-1.77072 v -2.85821 h -1.11581 v 2.72567 c 0,0.66879 -0.0474,1.11521 -0.0965,1.25633 v 0.002 0.001 c -0.0883,0.26571 -0.24188,0.47066 -0.47737,0.63483 -0.23062,0.16077 -0.51146,0.24388 -0.86476,0.24388 -0.35603,0 -0.64448,-0.0849 -0.88587,-0.24993 v 0 c -0.24152,-0.16852 -0.39724,-0.38574 -0.48341,-0.67598 -0.052,-0.18357 -0.0899,-0.60332 -0.0899,-1.21215 v -2.72568 z m -3.87484,-0.13798 c -0.87754,0 -1.63245,0.3311 -2.2135,0.97311 v 6.2e-4 h -6.2e-4 c -0.5249,0.58565 -0.79356,1.29309 -0.79356,2.08662 0,0.799 0.28415,1.51546 0.8352,2.11325 v 6.1e-4 l 6.2e-4,6.2e-4 c 0.5602,0.60041 1.30092,0.90654 2.17186,0.90654 h 0.008 l 0.008,-6.1e-4 c 0.78732,-0.0667 1.42066,-0.33072 1.8647,-0.7843 v 0.80971 h 1.10011 l 0.0356,-0.16097 c 0.013,-0.0584 0.005,-0.0405 0.005,-0.052 3.1e-4,-0.0116 9.3e-4,-0.0254 0.001,-0.0424 6.2e-4,-0.0339 0.002,-0.0814 0.002,-0.14282 9.2e-4,-0.12293 0.001,-0.30225 0.001,-0.5392 0,-0.47376 -0.002,-1.17661 -0.005,-2.10841 0,-0.80059 -0.27476,-1.51072 -0.81045,-2.09327 -0.58106,-0.63798 -1.33491,-0.96706 -2.2117,-0.96706 z m -6.61758,0 c -0.94535,0 -1.73241,0.37655 -2.29678,1.10322 -0.44477,0.56828 -0.67106,1.22964 -0.67106,1.95712 0,0.77198 0.26884,1.47803 0.79054,2.08782 v 6.2e-4 c 0.53325,0.61974 1.29013,0.93256 2.2117,0.93256 0.41626,0 0.79631,-0.0619 1.13692,-0.19002 l 0.001,-6.2e-4 6.2e-4,-6.2e-4 c 0.33742,-0.13041 0.64302,-0.31966 0.91304,-0.56583 0.27464,-0.25038 0.50816,-0.57579 0.70364,-0.97129 l 0.0881,-0.17852 -0.92571,-0.49564 -0.0996,0.16703 c -0.20625,0.34366 -0.39674,0.58473 -0.55217,0.71833 l -6.2e-4,6.2e-4 h -6.2e-4 c -0.15875,0.13894 -0.35564,0.25514 -0.59381,0.34616 -1.9e-4,7e-5 -3.1e-4,-7e-5 -6.2e-4,0 -0.23636,0.0869 -0.4784,0.13011 -0.72959,0.13011 -0.51783,0 -0.9292,-0.17341 -1.28055,-0.53739 l -6.2e-4,-6.2e-4 c -0.30345,-0.31747 -0.45479,-0.72186 -0.50389,-1.20307 h 4.79874 l -0.001,-0.20576 c -0.003,-0.77104 -0.21319,-1.43648 -0.63304,-1.9674 v -6.2e-4 c -0.58386,-0.74214 -1.38977,-1.12622 -2.35471,-1.12622 z m -8.027879,-0.53981 h 1.513489 c 0.48177,0 0.80409,0.0949 0.98002,0.23904 0.18691,0.15312 0.27397,0.34157 0.27397,0.62877 0,0.21078 -0.0566,0.39155 -0.175,0.56281 v 6.2e-4 c -0.11467,0.16701 -0.2662,0.28659 -0.47191,0.36855 l -6.2e-4,6.1e-4 h -6.2e-4 c -0.18879,0.0763 -0.54196,0.1277 -1.03312,0.1277 h -1.086237 z m -1.120631,-1.12379 v 0.20515 7.50529 h 3.07585 c 0.75498,0 1.38791,-0.21815 1.85807,-0.66084 l 6.2e-4,-6.2e-4 c 0.46438,-0.44081 0.70726,-1.00315 0.70726,-1.64061 0,-0.31599 -0.0638,-0.61501 -0.1913,-0.889 -0.1262,-0.27119 -0.30379,-0.50529 -0.52863,-0.69473 -1.2e-4,-1e-4 -6.2e-4,1e-4 -6.2e-4,0 -0.16386,-0.14038 -0.42047,-0.24309 -0.66743,-0.35039 0.19632,-0.14878 0.40767,-0.28703 0.52863,-0.4914 0.17904,-0.29722 0.27035,-0.63294 0.27035,-0.99126 0,-0.37992 -0.10177,-0.73628 -0.30113,-1.05299 -0.19727,-0.31873 -0.47698,-0.56151 -0.82252,-0.71471 -0.35359,-0.15676 -0.82045,-0.22391 -1.4127,-0.22391 z m 25.54642,-0.18216 v 5.8084 c -0.007,0.42722 0.0924,0.82821 0.2969,1.18795 v 0.002 0.001 c 0.33295,0.56477 0.82662,0.89399 1.42116,0.92712 l 0.003,6.2e-4 h 0.003 c 0.31769,0.0111 0.66409,-0.061 1.04218,-0.20576 l 0.19492,-0.0744 -0.0784,-0.19365 c -0.0539,-0.13349 -0.12518,-0.32353 -0.21305,-0.56825 l -0.0802,-0.22391 -0.20882,0.11256 c -0.28684,0.15489 -0.52969,0.16208 -0.79475,0.0442 -0.33634,-0.26548 -0.49253,-0.61114 -0.47492,-1.11653 v -0.004 -2.08299 h 1.27633 v -1.00579 h -1.28116 v -2.60888 z"
       style="color:#000000;font-style:normal;font-variant:normal;font-weight:normal;font-stretch:normal;font-size:32.53913498px;line-height:20.33695602px;font-family:'eurofurence light';-inkscape-font-specification:'eurofurence light, ';font-variant-ligatures:normal;font-variant-position:normal;font-variant-caps:normal;font-variant-numeric:normal;font-variant-alternates:normal;font-feature-settings:normal;text-indent:0;text-align:start;text-decoration:none;text-decoration-line:none;text-decoration-style:solid;text-decoration-color:#000000;letter-spacing:0px;word-spacing:0px;text-transform:none;writing-mode:lr-tb;direction:ltr;text-orientation:mixed;dominant-baseline:auto;baseline-shift:baseline;text-anchor:start;white-space:normal;shape-padding:0;clip-rule:nonzero;display:inline;overflow:visible;visibility:visible;opacity:1;isolation:auto;mix-blend-mode:normal;color-interpolation:sRGB;color-interpolation-filters:linearRGB;solid-color:#000000;solid-opacity:1;vector-effect:none;fill:#ffffff;fill-opacity:1;fill-rule:nonzero;stroke:none;stroke-width:1.32291675;stroke-linecap:butt;stroke-linejoin:miter;stroke-miterlimit:4;stroke-dasharray:none;stroke-dashoffset:0;stroke-opacity:1;color-rendering:auto;image-rendering:auto;shape-rendering:auto;text-rendering:auto;enable-background:accumulate"
       id="path31130"
       inkscape:connector-curvature="0" />
    <g
       style="fill:#ffffff;stroke-width:6.18248224"
       transform="matrix(0.16174119,0,0,0.16175346,-102.14312,152.51166)"
       id="g981"
       inkscape:export-xdpi="96"
       inkscape:export-ydpi="96" />
    <path
       inkscape:connector-curvature="0"
       id="path983"
       style="color:#000000;font-style:normal;font-variant:normal;font-weight:normal;font-stretch:normal;font-size:32.53913498px;line-height:20.33695602px;font-family:'eurofurence light';-inkscape-font-specification:'eurofurence light, ';font-variant-ligatures:normal;font-variant-position:normal;font-variant-caps:normal;font-variant-numeric:normal;font-variant-alternates:normal;font-feature-settings:normal;text-indent:0;text-align:start;text-decoration:none;text-decoration-line:none;text-decoration-style:solid;text-decoration-color:#000000;letter-spacing:0px;word-spacing:0px;text-transform:none;writing-mode:lr-tb;direction:ltr;text-orientation:mixed;dominant-baseline:auto;baseline-shift:baseline;text-anchor:start;white-space:normal;shape-padding:0;clip-rule:nonzero;display:inline;overflow:visible;visibility:visible;opacity:1;isolation:auto;mix-blend-mode:normal;color-interpolation:sRGB;color-interpolation-filters:linearRGB;solid-color:#000000;solid-opacity:1;vector-effect:none;fill:#ffffff;fill-opacity:1;fill-rule:nonzero;stroke:none;stroke-width:2.64583349;stroke-linecap:butt;stroke-linejoin:miter;stroke-miterlimit:4;stroke-dasharray:none;stroke-dashoffset:0;stroke-opacity:1;color-rendering:auto;image-rendering:auto;shape-rendering:auto;text-rendering:auto;enable-background:accumulate"
       d="m 43.163608,151.70094 h 2.258591 c 1.519993,0 2.604529,0.0929 3.047183,0.1977 0.76986,0.18447 1.28033,0.4924 1.660455,0.9248 l 0.02606,0.0261 c 0.397988,0.45563 0.559035,0.88113 0.559035,1.48098 0,0.47818 -0.118198,0.85931 -0.397551,1.26734 -0.280357,0.4095 -0.611554,0.68059 -1.081866,0.87917 l -0.0072,0.003 c -0.370107,0.15748 -1.282588,0.31864 -2.557665,0.31864 h -3.50701 z m 0,-7.80828 h 3.357112 c 1.160278,0 1.878684,0.24892 2.180387,0.49608 0.380262,0.31151 0.517039,0.58787 0.517039,1.21882 0,0.44803 -0.107672,0.78958 -0.358451,1.15219 l -0.0058,0.008 c -0.225693,0.32658 -0.505969,0.54727 -0.911695,0.72057 h 0.02317 l -0.08328,0.0333 -0.0051,0.002 h -7.42e-4 l -0.08762,0.0348 0.01954,-0.0196 c -0.378679,0.13762 -1.204484,0.27375 -2.372285,0.27375 H 43.16353 Z m -3.829256,-3.83823 v 0.491 0.52142 19.56921 h 8.308788 c 2.013674,0 3.763012,-0.59257 5.059567,-1.81339 l 0.0015,-7.4e-4 0.0022,-0.002 v -7.4e-4 c 1.269352,-1.20512 1.950119,-2.78062 1.950112,-4.5255 0,-0.86927 -0.176226,-1.70311 -0.531521,-2.46661 -0.349238,-0.75048 -0.8455,-1.40588 -1.471454,-1.9336 -0.310074,-0.26545 -0.679091,-0.45697 -1.057244,-0.63005 0.298221,-0.24066 0.586761,-0.51376 0.806692,-0.88497 0.500548,-0.83179 0.756717,-1.77736 0.756729,-2.77077 0,-1.05205 -0.285615,-2.05345 -0.839278,-2.93444 -0.551795,-0.8914 -1.342692,-1.5798 -2.307124,-2.00738 -0.997841,-0.4424 -2.249003,-0.61122 -3.791602,-0.61122 z" />
  </g>
</svg>
